<?xml version="1.0" standalone="no"?>
<!DOCTYPE svg PUBLIC "-//W3C//DTD SVG 20010904//EN"
 "http://www.w3.org/TR/2001/REC-SVG-20010904/DTD/svg10.dtd">
<svg version="1.0" xmlns="http://www.w3.org/2000/svg"
 width="1344.000000pt" height="768.000000pt" viewBox="0 0 1344.000000 768.000000"
 preserveAspectRatio="xMidYMid meet">

<g transform="translate(0.000000,768.000000) scale(0.100000,-0.100000)"
fill="#000000" stroke="none">
<path d="M0 3840 l0 -3840 6720 0 6720 0 0 3840 0 3840 -6720 0 -6720 0 0
-3840z m11420 2580 c89 -46 125 -155 82 -252 -65 -148 -275 -143 -343 7 -73
159 104 325 261 245z m105 -1480 l0 -1005 -4842 -3 -4843 -2 0 1010 0 1010
4843 -2 4842 -3 0 -1005z m0 -2255 l0 -950 -4842 -3 -4843 -2 0 955 0 955
4843 -2 4842 -3 0 -950z m1365 -1895 c0 -26 45 -102 82 -138 22 -23 65 -51 94
-64 30 -13 54 -25 54 -28 0 -4 -17 -12 -37 -19 -80 -29 -155 -104 -184 -183
-7 -21 -15 -38 -19 -38 -3 0 -16 25 -29 55 -28 65 -97 133 -163 161 -27 10
-48 21 -48 24 0 4 17 12 38 19 80 29 172 123 187 192 6 27 25 41 25 19z"/>
<path d="M11270 6382 c-103 -51 -108 -201 -8 -262 96 -58 228 31 216 145 -12
106 -115 164 -208 117z m125 -57 c29 -28 32 -51 9 -76 -15 -16 -15 -20 0 -41
9 -12 16 -31 16 -41 0 -31 -33 -15 -55 26 -27 50 -51 49 -60 -3 -5 -30 -11
-40 -26 -40 -17 0 -19 8 -19 93 0 52 3 97 7 100 3 4 28 7 55 7 39 0 54 -5 73
-25z"/>
<path d="M11302 6288 c2 -18 10 -23 33 -23 23 0 31 5 33 23 3 19 -1 22 -33 22
-32 0 -36 -3 -33 -22z"/>
<path d="M7587 5850 c-83 -21 -172 -83 -202 -140 -7 -14 -51 -129 -99 -256
-47 -127 -99 -263 -115 -303 l-30 -71 230 0 c126 0 232 -1 237 -2 4 0 19 37
33 83 31 97 26 101 79 -71 34 -113 54 -149 48 -90 l-3 35 158 3 c171 3 176 1
163 -53 l-6 -25 -155 0 c-97 0 -155 -4 -155 -10 0 -6 58 -10 155 -10 l155 0 0
-44 0 -43 -137 5 -136 5 6 -34 c10 -51 39 -69 109 -69 62 0 107 17 163 63 26
22 29 30 26 71 -2 45 -2 46 28 46 29 0 31 -3 31 -35 0 -24 5 -35 15 -35 10 0
15 11 15 35 0 32 2 35 30 35 17 0 30 5 30 10 0 6 -14 10 -31 10 l-32 0 6 53
c3 37 -1 67 -15 104 l-19 53 -202 2 -202 3 0 110 0 110 157 5 156 5 -62 158
c-70 176 -101 218 -193 263 -58 29 -172 40 -236 24z m494 -704 c3 -3 3 -23 1
-45 l-4 -41 -78 0 c-42 0 -111 3 -153 6 l-75 7 -4 34 c-2 18 -2 36 1 38 6 6
306 7 312 1z m89 -36 c0 -38 -2 -40 -30 -40 -28 0 -30 2 -30 40 0 38 2 40 30
40 28 0 30 -2 30 -40z m0 -110 c0 -38 -2 -40 -30 -40 -28 0 -30 2 -30 40 0 38
2 40 30 40 28 0 30 -2 30 -40z"/>
<path d="M2062 5608 l3 -233 393 -3 c215 -1 392 -5 392 -8 0 -3 -45 -57 -100
-121 l-100 -116 49 -16 c26 -9 70 -33 98 -53 58 -44 124 -64 176 -54 20 4 70
29 110 57 54 36 89 52 128 58 29 5 58 7 65 4 6 -2 46 38 90 89 43 51 100 116
127 145 l47 53 0 215 0 215 -740 0 -740 0 2 -232z"/>
<path d="M3660 5525 c0 -173 2 -315 4 -315 2 0 20 7 39 15 72 30 168 11 240
-46 44 -36 113 -68 145 -69 l22 0 0 365 0 365 -225 0 -225 0 0 -315z"/>
<path d="M4672 5498 l3 -343 45 -23 c72 -37 130 -28 227 36 43 28 92 54 108
57 71 16 64 -14 63 303 0 158 -3 293 -5 299 -4 10 -58 13 -224 13 l-219 0 2
-342z"/>
<path d="M5238 5834 c-5 -4 -8 -147 -8 -317 0 -291 1 -309 18 -302 94 40 168
30 268 -37 79 -53 136 -72 182 -62 52 11 62 15 62 24 0 5 -6 7 -12 5 -34 -12
-39 10 -36 151 l3 139 195 -1 c181 0 198 -2 237 -22 49 -25 69 -52 78 -103 7
-40 -15 -106 -43 -127 -16 -12 -15 -15 6 -33 61 -49 157 -46 230 8 95 69 191
95 259 70 19 -7 22 -3 29 35 11 68 6 186 -12 247 -43 152 -168 259 -359 306
-61 15 -138 18 -580 22 -280 3 -513 1 -517 -3z"/>
<path d="M8692 4948 l3 -893 228 -3 227 -2 0 895 0 895 -230 0 -230 0 2 -892z"/>
<path d="M9272 4949 l3 -894 300 -3 c425 -4 533 10 700 92 150 74 277 196 358
346 39 73 99 235 90 244 -4 3 -32 6 -64 6 -52 0 -64 -4 -126 -46 -37 -26 -82
-53 -100 -60 -54 -23 -124 -18 -184 14 l-54 28 -50 -51 c-47 -49 -162 -115
-198 -115 -8 0 -17 9 -20 20 -3 11 -12 20 -21 20 -15 0 -16 30 -14 303 l3 302
78 3 77 3 0 -46 c0 -33 -4 -45 -15 -45 -18 0 -20 -42 -3 -70 10 -16 9 -23 -7
-41 -11 -12 -30 -25 -42 -30 -22 -8 -23 -14 -23 -119 l0 -110 105 0 105 0 0
110 c0 91 -3 110 -15 110 -8 0 -29 12 -46 28 -30 26 -30 28 -15 57 21 41 20
62 -5 68 -17 5 -20 12 -17 44 l3 38 70 0 70 0 24 -60 c17 -43 25 -84 27 -144
3 -100 8 -105 94 -99 44 3 70 12 107 36 102 67 149 85 219 80 l65 -4 -6 55
c-44 396 -288 691 -653 788 -94 25 -109 26 -460 31 l-362 4 2 -893z m623 562
c-7 -33 -19 -25 264 -161 215 -103 234 -110 291 -110 61 0 61 0 58 -27 l-3
-28 -317 -3 -318 -2 0 -309 c0 -170 -3 -316 -6 -325 -4 -12 0 -16 15 -16 16 0
21 -6 21 -25 0 -24 -3 -25 -55 -25 -49 0 -55 2 -55 21 0 13 8 23 21 26 19 5
21 11 15 51 -3 25 -6 55 -6 68 l0 24 -170 0 -170 0 0 -45 c0 -56 0 -56 -11
-77 -8 -15 -5 -18 16 -18 20 0 25 -5 25 -25 0 -25 -2 -26 -57 -23 -50 3 -58 6
-58 23 0 12 8 21 20 23 20 3 20 9 17 327 l-3 324 -67 3 c-65 3 -67 4 -70 31
l-3 27 508 1 508 1 -224 109 c-123 60 -224 109 -225 109 0 0 -1 -44 -1 -97 0
-81 -3 -98 -15 -98 -12 0 -16 18 -18 93 -1 50 -5 92 -7 92 -2 0 -64 -46 -136
-102 -79 -61 -134 -97 -137 -90 -2 8 -37 12 -118 12 l-114 0 0 65 0 66 127 -3
128 -3 -3 -42 c-4 -47 13 -58 39 -27 8 9 48 42 89 74 96 73 104 83 91 108 -6
11 -9 21 -6 23 2 2 31 5 65 5 60 1 61 1 55 -25z m-97 -185 c5 -53 -2 -64 -32
-59 -24 5 -26 10 -26 55 0 48 1 49 28 46 24 -3 27 -8 30 -42z m202 18 c25 -8
65 -28 90 -44 l45 -30 -127 0 -128 0 0 50 0 51 38 -6 c20 -4 57 -13 82 -21z
m80 -314 c0 -5 -7 -10 -15 -10 -8 0 -15 5 -15 10 0 6 7 10 15 10 8 0 15 -4 15
-10z m7 -96 c2 -6 -11 -11 -28 -11 -29 0 -30 1 -13 14 20 14 36 13 41 -3z m53
-54 c0 -18 -7 -20 -74 -20 -72 0 -94 8 -81 30 3 6 40 10 81 10 67 0 74 -2 74
-20z m0 -60 c0 -18 -7 -20 -70 -20 -38 0 -73 -1 -77 -2 -5 -2 -9 7 -11 20 -3
21 -1 22 77 22 74 0 81 -2 81 -20z m-2 -72 c-3 -22 -7 -23 -78 -20 -41 2 -77
5 -79 7 -2 3 -1 11 2 20 5 12 23 15 82 15 73 0 76 -1 73 -22z m-338 -153 c0
-32 -4 -45 -14 -45 -8 0 -16 -11 -18 -25 -7 -54 -23 -27 -26 43 l-3 72 31 0
c29 0 30 -2 30 -45z"/>
<path d="M9542 5112 c29 -37 65 -83 79 -101 l26 -33 58 73 c32 41 72 86 89
101 l31 27 -168 1 -168 0 53 -68z"/>
<path d="M9742 5044 l-73 -94 32 -43 c60 -76 112 -137 118 -137 3 0 6 83 6
185 1 102 -1 185 -5 184 -3 0 -38 -43 -78 -95z m58 -101 l-1 -108 -29 33 c-24
26 -30 41 -30 78 0 45 29 104 51 104 5 0 9 -48 9 -107z"/>
<path d="M9474 4950 c0 -99 2 -179 6 -178 4 2 39 41 78 88 l70 86 -69 89 c-38
50 -72 91 -76 92 -4 2 -8 -78 -9 -177z"/>
<path d="M9634 4903 c-7 -10 -41 -54 -78 -97 -36 -44 -66 -83 -66 -88 0 -4 74
-8 165 -8 l165 0 -86 105 c-47 58 -86 105 -87 105 -1 0 -7 -8 -13 -17z"/>
<path d="M10832 4948 l3 -893 230 0 230 0 0 890 0 890 -233 3 -232 2 2 -892z"/>
<path d="M4377 5393 c-4 -3 -7 -35 -7 -69 0 -61 -1 -63 -27 -66 -27 -3 -28 -5
-25 -53 2 -36 10 -57 28 -76 13 -14 24 -37 24 -52 0 -22 5 -27 24 -27 31 0 63
-28 71 -60 9 -38 -27 -80 -69 -80 -48 0 -89 55 -56 75 6 4 8 11 5 16 -11 17
-35 9 -47 -16 -9 -21 -8 -32 5 -60 l17 -35 -70 0 c-63 0 -70 -2 -70 -20 0 -17
7 -20 44 -20 52 0 55 -4 49 -47 -5 -32 -7 -33 -50 -33 -40 0 -44 -2 -41 -22 2
-19 11 -24 48 -28 l45 -5 0 -40 c0 -38 -2 -40 -27 -37 -34 4 -35 -7 -5 -36 21
-20 34 -22 146 -22 120 0 122 0 149 28 l27 27 -22 3 c-19 3 -23 10 -23 43 0
39 0 39 40 39 35 0 40 3 40 23 0 20 -4 22 -39 19 -46 -5 -52 3 -44 51 5 36 7
37 49 37 37 0 44 3 44 20 0 18 -7 20 -72 20 -70 0 -71 0 -54 19 30 33 31 91 4
131 -13 19 -34 36 -46 38 -29 4 -28 28 3 55 17 16 24 33 25 62 3 61 2 63 -27
67 -27 3 -28 5 -31 71 -3 63 -14 82 -35 60z m63 -186 c0 -22 -30 -57 -50 -57
-20 0 -40 27 -40 54 0 12 11 16 45 16 30 0 45 -4 45 -13z"/>
<path d="M7800 5285 c0 -60 3 -75 15 -75 12 0 15 15 15 75 0 60 -3 75 -15 75
-12 0 -15 -15 -15 -75z"/>
<path d="M7870 5285 c0 -60 3 -75 15 -75 12 0 15 15 15 75 0 60 -3 75 -15 75
-12 0 -15 -15 -15 -75z"/>
<path d="M7940 5285 c0 -60 3 -75 15 -75 12 0 15 15 15 75 0 60 -3 75 -15 75
-12 0 -15 -15 -15 -75z"/>
<path d="M8010 5284 c0 -56 3 -75 13 -72 15 6 21 49 12 105 -10 69 -25 50 -25
-33z"/>
<path d="M8080 5284 c0 -49 4 -74 11 -72 6 2 10 7 10 11 -1 4 -1 36 -1 72 0
37 -4 65 -10 65 -6 0 -10 -32 -10 -76z"/>
<path d="M5311 5160 c-64 -15 -81 -30 -81 -72 0 -21 2 -38 4 -38 2 0 20 7 39
15 80 33 173 11 274 -66 33 -25 56 -33 97 -37 73 -6 92 0 167 51 136 93 211
91 354 -7 68 -47 70 -48 136 -44 61 3 74 8 136 51 70 48 116 67 166 67 20 0
32 8 47 33 11 17 20 35 20 40 0 12 -97 8 -127 -5 -15 -7 -56 -32 -90 -55 -71
-48 -111 -58 -190 -50 -44 5 -70 16 -124 51 l-69 46 -91 0 c-89 0 -93 -1 -139
-35 -66 -48 -110 -65 -172 -65 -60 0 -120 24 -178 70 -56 45 -122 63 -179 50z"/>
<path d="M3693 5145 c-29 -12 -33 -18 -33 -54 l0 -40 35 15 c75 31 180 11 250
-48 40 -33 82 -54 128 -62 l37 -7 0 46 c0 42 -2 45 -27 45 -49 0 -101 20 -147
55 -24 18 -58 41 -75 49 -37 20 -125 20 -168 1z"/>
<path d="M5060 5153 c-8 -3 -51 -28 -94 -56 -74 -48 -85 -52 -151 -55 -52 -3
-81 0 -103 12 -41 21 -42 21 -42 -18 0 -40 14 -53 76 -72 68 -20 114 -9 205
52 53 35 95 55 125 60 43 6 44 7 44 45 0 34 -3 39 -22 38 -13 0 -30 -3 -38 -6z"/>
<path d="M2534 4993 c-57 -62 -68 -83 -31 -59 36 24 113 39 161 32 30 -5 72
-25 127 -62 74 -49 87 -54 137 -54 37 0 71 7 101 22 45 22 198 164 188 174 -7
7 -63 -22 -104 -53 -57 -42 -114 -63 -176 -63 -66 0 -112 17 -169 61 -46 37
-99 58 -147 59 -29 0 -42 -9 -87 -57z"/>
<path d="M7126 5033 c-3 -3 -6 -42 -6 -85 0 -63 3 -78 15 -78 12 0 15 15 15
79 0 74 -7 100 -24 84z"/>
<path d="M7190 4955 c0 -69 3 -85 15 -85 12 0 15 16 15 85 0 69 -3 85 -15 85
-12 0 -15 -16 -15 -85z"/>
<path d="M7259 5008 c-6 -119 -4 -143 11 -143 12 0 15 16 15 84 0 59 -4 86
-12 89 -9 2 -14 -8 -14 -30z"/>
<path d="M7327 5033 c-4 -3 -7 -41 -7 -84 0 -58 4 -78 15 -82 22 -9 24 1 18
91 -6 77 -10 91 -26 75z"/>
<path d="M7397 5033 c-4 -3 -7 -42 -7 -85 0 -73 1 -78 21 -78 17 0 20 4 15 23
-3 12 -6 50 -6 85 0 57 -6 72 -23 55z"/>
<path d="M7460 4956 c0 -65 3 -85 15 -90 13 -4 15 9 15 84 0 73 -3 90 -15 90
-12 0 -15 -16 -15 -84z"/>
<path d="M7530 4955 c0 -47 4 -85 9 -85 13 0 21 38 21 108 0 48 -3 62 -15 62
-12 0 -15 -16 -15 -85z"/>
<path d="M3729 5001 c-71 -22 -69 -16 -69 -184 1 -296 78 -490 253 -635 67
-55 193 -117 282 -138 97 -24 296 -23 390 0 158 40 313 141 394 256 98 140
131 261 138 508 3 106 2 187 -3 192 -13 13 -74 -5 -115 -35 -89 -64 -123 -79
-184 -83 -48 -3 -71 0 -102 17 l-41 20 -4 -117 c-4 -135 -21 -185 -83 -247
-57 -56 -116 -80 -200 -79 -60 0 -79 4 -125 30 -102 58 -150 151 -150 294 l0
77 -45 6 c-52 8 -94 27 -148 70 -63 49 -127 66 -188 48z"/>
<path d="M5299 5001 c-14 -5 -35 -14 -47 -20 l-22 -12 2 -457 3 -457 415 -3
c459 -3 639 6 745 38 244 75 376 247 375 489 -1 165 -77 304 -201 361 -48 23
-49 24 -32 43 18 19 17 20 -7 7 -14 -7 -41 -26 -61 -41 -81 -63 -171 -84 -250
-58 -19 7 -58 30 -88 52 -109 81 -181 82 -298 2 -122 -84 -217 -87 -320 -8
-85 65 -147 84 -214 64z m881 -253 c62 -33 85 -68 85 -133 0 -64 -22 -98 -81
-129 -35 -19 -60 -21 -256 -24 l-218 -4 0 156 0 156 213 0 c201 0 215 -1 257
-22z"/>
<path d="M10610 4891 c-14 -5 -55 -29 -92 -54 -80 -54 -147 -72 -215 -57 -50
12 -61 7 -65 -30 -3 -20 5 -27 43 -43 69 -29 120 -18 218 48 86 56 135 71 200
60 38 -6 39 -6 44 27 4 23 0 37 -11 46 -17 13 -82 15 -122 3z"/>
<path d="M2551 4880 c-13 -6 -46 -26 -72 -46 -27 -19 -70 -43 -98 -52 -43 -15
-64 -35 -185 -172 l-136 -154 2 -201 3 -200 748 -3 747 -2 0 235 0 235 -396 0
-395 0 20 29 c12 16 59 72 106 125 l86 96 -38 0 c-60 0 -102 16 -176 67 -61
42 -75 47 -130 50 -34 2 -73 -2 -86 -7z"/>
<path d="M7071 4874 c0 -11 3 -14 6 -6 3 7 2 16 -1 19 -3 4 -6 -2 -5 -13z"/>
<path d="M7170 4815 c23 -22 256 -23 278 -1 15 15 4 16 -138 16 -135 0 -152
-2 -140 -15z"/>
<path d="M7557 4796 c-21 -8 -59 -30 -84 -50 -45 -35 -124 -66 -167 -66 -43 0
-96 22 -158 64 -92 63 -105 65 -123 22 -19 -46 -19 -46 9 -46 38 0 76 -18 133
-61 95 -71 174 -76 260 -13 85 61 127 77 203 72 61 -3 74 -8 148 -57 121 -79
188 -80 286 -5 26 19 62 42 81 50 39 16 132 19 169 4 31 -11 32 -5 10 49 -13
34 -21 40 -54 46 -54 9 -106 -8 -179 -59 -113 -80 -221 -83 -315 -11 -87 66
-153 85 -219 61z"/>
<path d="M6969 4624 c-6 -16 -23 -63 -39 -104 -15 -41 -62 -160 -104 -263 -42
-104 -73 -193 -70 -198 9 -15 497 -1 506 14 3 7 25 69 48 140 l41 127 319 0
318 0 48 -142 49 -143 259 -2 c202 -2 257 0 252 10 -3 6 -50 126 -106 266 -55
140 -106 261 -113 269 -20 25 -89 52 -135 52 -53 0 -98 -18 -158 -64 -60 -46
-103 -59 -180 -54 -56 3 -71 9 -131 50 -37 26 -81 51 -96 57 -64 24 -136 7
-207 -49 -110 -87 -206 -81 -361 21 -26 17 -65 33 -88 36 -38 5 -41 3 -52 -23z"/>
<path d="M3579 3540 c-233 -29 -440 -144 -591 -330 -42 -52 -110 -174 -133
-240 -70 -197 -60 -463 24 -642 44 -94 41 -91 94 -77 l46 11 -24 37 c-29 47
-48 109 -43 141 3 22 9 25 46 28 l42 3 0 79 c0 90 -12 126 -46 134 -21 6 -24
12 -24 55 0 53 8 61 61 61 24 0 29 -4 29 -25 0 -18 -5 -25 -20 -25 -16 0 -20
-7 -20 -35 0 -32 3 -35 29 -35 16 0 33 -6 39 -13 6 -7 12 -53 14 -102 2 -60 7
-90 16 -93 9 -3 12 13 12 60 0 104 -9 139 -41 157 -45 25 -36 41 24 42 28 0
97 2 152 4 180 6 230 -11 129 -46 -41 -15 -50 -15 -52 -3 -5 21 -32 17 -32 -4
0 -13 -11 -21 -37 -28 l-38 -9 -3 -97 c-2 -83 0 -98 13 -98 8 0 15 6 15 14 0
18 132 45 138 28 5 -17 22 -15 22 3 0 8 12 17 28 21 15 3 43 10 62 15 50 13
70 11 70 -6 0 -23 18 -18 22 7 2 18 15 25 73 40 87 22 85 22 85 -2 0 -11 5
-20 11 -20 6 0 13 9 16 20 3 11 14 20 24 20 11 0 19 7 19 15 0 8 -9 15 -20 15
-16 0 -20 7 -20 30 l0 30 81 0 c72 0 81 -2 86 -20 7 -25 19 -26 25 -2 4 14 16
17 79 16 41 -1 84 -4 96 -9 22 -7 22 -6 25 99 4 139 22 145 26 9 l3 -103 84 0
c78 0 85 -2 85 -19 0 -11 -22 -48 -50 -83 -103 -131 -124 -168 -128 -228 -5
-75 11 -95 75 -95 26 0 63 6 81 14 l32 13 0 259 0 258 -77 3 -78 3 -3 53 -3
53 -37 -3 -37 -3 -3 -59 -3 -59 -194 7 -193 7 -124 -36 c-67 -20 -131 -38
-140 -41 -14 -4 -18 1 -18 20 0 21 -5 25 -32 28 -25 2 -33 8 -33 23 0 18 -6
20 -57 17 -55 -4 -58 -3 -58 20 0 64 119 201 207 239 80 34 187 44 277 26 92
-19 193 -64 252 -112 l42 -35 106 197 c123 226 122 205 4 275 -172 102 -411
152 -609 128z m-319 -615 c0 -18 5 -25 19 -25 31 0 35 -19 7 -30 -20 -7 -26
-16 -26 -40 0 -25 -4 -31 -17 -28 -13 2 -17 11 -15 30 3 22 -2 29 -22 34 -34
8 -34 34 0 34 23 0 25 3 20 25 -5 20 -3 25 14 25 15 0 20 -7 20 -25z m-102
-95 c-2 -12 -6 -21 -10 -20 -5 0 -24 0 -43 0 -40 0 -50 26 -12 33 54 11 68 8
65 -13z m105 -50 c107 0 127 -2 127 -15 0 -13 -21 -15 -147 -13 -136 3 -148 5
-151 22 -3 15 0 18 19 13 13 -4 81 -7 152 -7z m645 -16 c49 -6 52 -8 52 -35
l0 -29 -85 0 -85 0 0 35 c0 33 2 35 33 35 17 0 56 -3 85 -6z m-148 -34 c0 -26
-5 -30 -42 -40 -24 -6 -58 -15 -76 -20 -33 -9 -33 -8 -30 22 3 29 8 33 63 49
82 24 85 23 85 -11z m388 1 c6 -37 -9 -43 -92 -35 -76 7 -76 7 -76 36 l0 29
83 -3 c78 -3 82 -4 85 -27z m-568 -50 c0 -28 -3 -30 -71 -45 -92 -21 -91 -21
-87 11 3 25 10 30 63 45 87 24 95 23 95 -11z m180 -34 c0 -33 -1 -33 -71 -50
-76 -18 -89 -16 -89 13 0 24 9 29 89 51 36 9 67 18 69 18 1 1 2 -14 2 -32z
m-362 -24 c-2 -11 -21 -21 -58 -29 -78 -19 -82 -18 -78 13 2 22 10 29 36 35
17 4 47 12 65 16 34 8 42 0 35 -35z m182 -23 c0 -25 -5 -30 -37 -40 -21 -6
-57 -13 -81 -17 -43 -6 -44 -6 -40 23 3 26 9 30 68 45 89 23 90 23 90 -11z
m-180 -45 c0 -25 -12 -30 -108 -50 -32 -7 -33 -6 -30 21 3 24 10 30 48 40 74
20 90 18 90 -11z"/>
<path d="M6630 3540 c-143 -18 -304 -89 -425 -187 -273 -221 -384 -609 -274
-950 11 -35 24 -65 28 -67 4 -3 29 6 56 19 54 28 129 33 186 13 19 -6 61 -31
95 -54 88 -63 168 -75 242 -35 30 16 28 23 -14 46 -58 31 -149 136 -175 202
-19 47 -23 78 -24 158 0 94 2 105 33 168 61 124 182 216 305 233 l47 7 0 -91
0 -91 -127 -3 -128 -3 -2 -65 c0 -36 -2 -90 -2 -119 l-1 -55 -33 32 -33 32
-17 -35 c-21 -44 -21 -55 -2 -55 9 0 18 -8 21 -17 44 -133 150 -229 284 -258
19 -4 40 -11 45 -16 14 -11 154 33 210 65 58 34 119 105 146 172 13 30 29 54
36 54 7 0 13 2 13 5 0 14 -33 85 -40 85 -4 0 -19 -16 -34 -34 -22 -30 -24 -36
-11 -43 13 -7 13 -15 4 -41 -6 -18 -15 -32 -20 -32 -5 0 -9 74 -9 165 l0 165
-130 0 -130 0 0 91 0 92 48 -6 c154 -18 292 -127 343 -271 23 -68 25 -181 4
-253 -22 -75 -88 -168 -151 -211 -29 -20 -53 -40 -54 -43 0 -10 75 -47 111
-54 52 -10 107 9 174 58 33 24 75 49 94 56 50 16 120 13 168 -8 l42 -20 15 47
c46 138 60 341 32 472 -68 319 -316 580 -626 659 -91 23 -232 32 -320 21z
m168 -166 c33 -37 29 -80 -11 -118 -25 -25 -31 -38 -29 -63 l3 -33 59 0 c33 0
70 5 84 11 20 9 29 9 41 -1 34 -29 2 -93 -36 -69 -19 12 -321 12 -353 0 -31
-12 -49 6 -44 46 2 23 7 27 28 25 14 -2 58 -6 98 -9 l72 -5 0 41 c0 31 -4 41
-21 46 -11 4 -27 22 -35 40 -39 93 77 165 144 89z m-88 -604 l0 -110 -105 0
c-58 0 -108 1 -111 3 -8 3 -16 196 -9 208 4 5 55 9 116 9 l109 0 0 -110z m270
0 l0 -111 -112 3 -113 3 -3 94 c-1 52 -1 100 2 108 4 10 33 13 116 13 l110 0
0 -110z m-530 -152 c-1 -31 -1 -32 -15 -14 -19 25 -19 46 0 46 10 0 15 -10 15
-32z m260 -98 l0 -110 -34 0 c-64 0 -66 3 -66 101 0 53 -4 89 -10 89 -6 0 -10
-32 -10 -75 0 -68 -2 -75 -20 -75 -17 0 -19 8 -22 72 -2 46 -7 73 -15 76 -10
3 -13 -13 -13 -55 l-1 -58 -19 24 c-14 16 -20 38 -20 72 l0 49 115 0 115 0 0
-110z m270 51 c0 -40 -5 -63 -15 -71 -13 -11 -15 -5 -15 44 0 43 -3 56 -15 56
-12 0 -15 -14 -15 -68 0 -63 -10 -92 -32 -92 -4 0 -8 36 -8 80 0 67 -3 80 -16
80 -14 0 -16 -12 -12 -89 l4 -90 -40 -10 c-23 -5 -44 -7 -48 -3 -10 10 -22
187 -15 206 5 13 25 16 117 16 l110 0 0 -59z"/>
<path d="M6694 3335 c-9 -36 2 -55 30 -55 26 0 56 23 56 44 0 20 -22 36 -52
36 -21 0 -29 -6 -34 -25z"/>
<path d="M6520 2771 c0 -66 3 -81 15 -81 13 0 15 13 13 77 -2 50 -7 78 -15 81
-10 3 -13 -17 -13 -77z"/>
<path d="M6590 2771 c0 -66 3 -81 15 -81 13 0 15 13 13 77 -2 50 -7 78 -15 81
-10 3 -13 -17 -13 -77z"/>
<path d="M6650 2770 c0 -64 3 -80 15 -80 12 0 15 16 15 80 0 64 -3 80 -15 80
-12 0 -15 -16 -15 -80z"/>
<path d="M6790 2770 c0 -47 4 -80 10 -80 6 0 10 33 10 80 0 47 -4 80 -10 80
-6 0 -10 -33 -10 -80z"/>
<path d="M6850 2770 c0 -64 3 -80 15 -80 12 0 15 16 15 80 0 64 -3 80 -15 80
-12 0 -15 -16 -15 -80z"/>
<path d="M6920 2769 c0 -60 3 -80 13 -77 8 3 13 31 15 81 2 64 0 77 -13 77
-12 0 -15 -15 -15 -81z"/>
<path d="M6650 2520 c0 -64 3 -80 15 -80 12 0 15 16 15 80 0 64 -3 80 -15 80
-12 0 -15 -16 -15 -80z"/>
<path d="M6790 2520 c0 -47 4 -80 10 -80 6 0 10 33 10 80 0 47 -4 80 -10 80
-6 0 -10 -33 -10 -80z"/>
<path d="M7690 2985 l0 -540 89 0 89 0 69 -47 c80 -55 131 -78 171 -78 34 0
94 19 90 29 -2 3 -15 29 -30 56 -44 85 -48 136 -48 644 l0 476 -215 0 -215 0
0 -540z"/>
<path d="M8387 3524 c-4 -4 -7 -45 -7 -91 l0 -83 -30 0 c-29 0 -30 -1 -30 -50
0 -41 5 -55 30 -83 17 -20 30 -46 30 -61 0 -16 7 -29 18 -33 30 -11 52 -35 52
-58 0 -30 -23 -47 -57 -43 -22 2 -29 9 -33 33 -3 17 -9 29 -13 28 -4 -2 -11
-3 -17 -3 -5 0 -10 -7 -10 -16 0 -9 -30 -50 -67 -91 -53 -60 -66 -81 -66 -106
0 -18 1 -114 2 -214 l1 -183 215 0 215 0 0 217 0 217 -62 63 c-53 53 -63 69
-64 100 -1 29 -9 44 -38 69 l-36 32 35 42 c29 35 35 50 35 90 0 48 -1 49 -32
52 l-33 3 -5 84 c-5 77 -15 103 -33 85z m63 -237 c0 -13 -10 -33 -22 -45 -19
-17 -26 -18 -40 -8 -19 14 -40 61 -31 70 4 3 26 6 50 6 38 0 43 -2 43 -23z
m-69 -310 c20 -8 33 -6 59 7 l34 17 45 -46 46 -45 -165 0 -164 0 44 45 c29 30
50 43 60 39 8 -4 27 -11 41 -17z m139 -144 c-22 -26 -59 -62 -81 -81 l-41 -35
-74 74 c-41 40 -74 77 -74 81 0 5 70 8 156 8 l156 0 -42 -47z m66 -143 c0 -82
-3 -150 -6 -150 -3 0 -39 33 -79 74 l-74 75 73 75 c40 42 77 76 80 76 4 0 7
-67 6 -150z m-282 71 l69 -70 -35 -38 c-85 -93 -105 -113 -111 -113 -4 0 -7
65 -7 145 0 80 3 145 8 145 4 0 39 -31 76 -69z m174 -174 c39 -40 72 -76 72
-80 0 -4 -67 -7 -150 -7 -82 0 -150 3 -150 7 0 9 142 153 150 153 3 0 38 -33
78 -73z"/>
<path d="M8678 3000 l-3 -525 -24 -50 c-14 -27 -27 -53 -29 -58 -6 -11 79 -47
114 -47 47 0 92 19 159 65 70 49 112 65 171 65 l44 0 0 538 0 537 -215 0 -214
0 -3 -525z"/>
<path d="M9240 3522 c-11 -4 -14 -1506 -3 -1619 l6 -63 213 0 214 0 2 213 3
212 200 6 c171 5 209 9 259 27 165 61 276 191 323 378 24 96 24 315 0 404 -58
220 -207 372 -416 425 -50 13 -130 17 -426 18 -201 1 -370 0 -375 -1z m695
-451 c102 -46 146 -184 86 -274 -21 -33 -81 -78 -92 -71 -5 3 -9 75 -9 159 l0
154 -127 3 c-124 3 -128 4 -131 26 -3 22 -2 22 115 22 93 0 127 -4 158 -19z
m-285 -96 l0 -45 -110 0 -110 0 0 45 0 45 110 0 110 0 0 -45z m248 -2 l3 -43
-110 0 c-60 0 -112 3 -114 8 -2 4 -2 24 1 45 l4 38 107 -3 106 -3 3 -42z
m-248 -108 l0 -45 -110 0 -110 0 0 38 c0 21 3 42 7 45 3 4 53 7 110 7 l103 0
0 -45z m248 -2 l3 -43 -109 0 -110 0 -6 35 c-4 20 -4 40 -1 46 4 6 49 9 113 7
l107 -3 3 -42z m-248 -108 l0 -45 -110 0 -110 0 0 38 c0 21 3 42 7 45 3 4 53
7 110 7 l103 0 0 -45z m250 0 l0 -45 -110 0 -110 0 0 45 0 45 110 0 110 0 0
-45z m-290 -275 l0 -81 -157 3 -158 3 -3 78 -3 77 161 0 160 0 0 -80z m-5
-170 l0 -75 -155 0 -155 0 -3 64 c-2 35 -1 70 2 78 5 11 36 13 158 11 l153 -3
0 -75z m0 -170 l0 -75 -155 0 -155 0 -3 64 c-2 35 -1 70 2 78 5 11 36 13 158
11 l153 -3 0 -75z m0 -170 l0 -75 -155 0 -155 0 -3 64 c-2 35 -1 70 2 78 5 11
36 13 158 11 l153 -3 0 -75z"/>
<path d="M9470 2975 c0 -12 15 -15 75 -15 60 0 75 3 75 15 0 12 -15 15 -75 15
-60 0 -75 -3 -75 -15z"/>
<path d="M9717 2983 c-18 -17 -1 -23 68 -23 60 0 75 3 75 15 0 12 -14 15 -68
15 -38 0 -72 -3 -75 -7z"/>
<path d="M9470 2865 c0 -12 15 -15 75 -15 60 0 75 3 75 15 0 12 -15 15 -75 15
-60 0 -75 -3 -75 -15z"/>
<path d="M9717 2873 c-18 -17 -1 -23 68 -23 60 0 75 3 75 15 0 12 -14 15 -68
15 -38 0 -72 -3 -75 -7z"/>
<path d="M9470 2755 c0 -12 15 -15 75 -15 60 0 75 3 75 15 0 12 -15 15 -75 15
-60 0 -75 -3 -75 -15z"/>
<path d="M9710 2755 c0 -12 15 -15 75 -15 60 0 75 3 75 15 0 12 -15 15 -75 15
-60 0 -75 -3 -75 -15z"/>
<path d="M9320 2480 c0 -27 5 -50 10 -50 6 0 10 23 10 50 0 28 -4 50 -10 50
-5 0 -10 -22 -10 -50z"/>
<path d="M9370 2480 c0 -27 5 -50 10 -50 6 0 10 23 10 50 0 28 -4 50 -10 50
-5 0 -10 -22 -10 -50z"/>
<path d="M9420 2480 c0 -27 5 -50 10 -50 6 0 10 23 10 50 0 28 -4 50 -10 50
-5 0 -10 -22 -10 -50z"/>
<path d="M9470 2480 c0 -27 5 -50 10 -50 6 0 10 23 10 50 0 28 -4 50 -10 50
-5 0 -10 -22 -10 -50z"/>
<path d="M9510 2480 c0 -27 5 -50 10 -50 6 0 10 23 10 50 0 28 -4 50 -10 50
-5 0 -10 -22 -10 -50z"/>
<path d="M9560 2480 c0 -27 5 -50 10 -50 6 0 10 23 10 50 0 28 -4 50 -10 50
-5 0 -10 -22 -10 -50z"/>
<path d="M9320 2310 c0 -27 5 -50 10 -50 6 0 10 23 10 50 0 28 -4 50 -10 50
-5 0 -10 -22 -10 -50z"/>
<path d="M9370 2310 c0 -27 5 -50 10 -50 6 0 10 23 10 50 0 28 -4 50 -10 50
-5 0 -10 -22 -10 -50z"/>
<path d="M9420 2310 c0 -27 5 -50 10 -50 6 0 10 23 10 50 0 28 -4 50 -10 50
-5 0 -10 -22 -10 -50z"/>
<path d="M9470 2310 c0 -27 5 -50 10 -50 6 0 10 23 10 50 0 28 -4 50 -10 50
-5 0 -10 -22 -10 -50z"/>
<path d="M9510 2310 c0 -27 5 -50 10 -50 6 0 10 23 10 50 0 28 -4 50 -10 50
-5 0 -10 -22 -10 -50z"/>
<path d="M9560 2310 c0 -27 5 -50 10 -50 6 0 10 23 10 50 0 28 -4 50 -10 50
-5 0 -10 -22 -10 -50z"/>
<path d="M9320 2140 c0 -27 5 -50 10 -50 6 0 10 23 10 50 0 28 -4 50 -10 50
-5 0 -10 -22 -10 -50z"/>
<path d="M9370 2140 c0 -27 5 -50 10 -50 6 0 10 23 10 50 0 28 -4 50 -10 50
-5 0 -10 -22 -10 -50z"/>
<path d="M9420 2140 c0 -27 5 -50 10 -50 6 0 10 23 10 50 0 28 -4 50 -10 50
-5 0 -10 -22 -10 -50z"/>
<path d="M9470 2140 c0 -27 5 -50 10 -50 6 0 10 23 10 50 0 28 -4 50 -10 50
-5 0 -10 -22 -10 -50z"/>
<path d="M9511 2163 c1 -16 5 -39 9 -53 6 -20 8 -14 9 28 1 28 -3 52 -9 52 -5
0 -10 -12 -9 -27z"/>
<path d="M9560 2140 c0 -27 5 -50 10 -50 6 0 10 23 10 50 0 28 -4 50 -10 50
-5 0 -10 -22 -10 -50z"/>
<path d="M9320 1970 c0 -27 5 -50 10 -50 6 0 10 23 10 50 0 28 -4 50 -10 50
-5 0 -10 -22 -10 -50z"/>
<path d="M9370 1970 c0 -27 5 -50 10 -50 6 0 10 23 10 50 0 28 -4 50 -10 50
-5 0 -10 -22 -10 -50z"/>
<path d="M9420 1970 c0 -27 4 -50 9 -50 5 0 9 23 9 50 0 28 -4 50 -9 50 -5 0
-9 -22 -9 -50z"/>
<path d="M9470 1970 c0 -27 5 -50 10 -50 6 0 10 23 10 50 0 28 -4 50 -10 50
-5 0 -10 -22 -10 -50z"/>
<path d="M9517 2013 c-11 -10 -8 -93 3 -93 6 0 10 23 10 50 0 51 -1 55 -13 43z"/>
<path d="M9560 1970 c0 -27 5 -50 10 -50 6 0 10 23 10 50 0 28 -4 50 -10 50
-5 0 -10 -22 -10 -50z"/>
<path d="M4510 2680 l0 -840 220 0 220 0 0 245 0 246 83 -3 82 -3 140 -242
140 -242 253 -1 c139 0 251 3 249 8 -19 34 -324 533 -339 554 l-19 27 39 25
c56 35 128 120 162 190 42 88 60 175 60 292 0 297 -152 507 -411 569 -52 12
-142 15 -471 15 l-408 0 0 -840z m735 405 c51 -8 102 -59 120 -118 18 -59 12
-106 -19 -157 l-21 -35 -3 108 -3 108 -182 -2 -182 -2 -3 43 c-2 23 -1 47 1
54 4 11 224 12 292 1z m43 -253 l3 -122 -328 2 -328 3 -3 123 -3 122 328 -2
328 -3 3 -123z m-140 -140 l143 -2 -3 -122 -3 -123 -325 0 -325 0 -3 114 c-1
63 -1 120 1 125 4 11 163 13 515 8z"/>
<path d="M4670 2835 c0 -69 3 -85 15 -85 12 0 15 16 15 85 0 69 -3 85 -15 85
-12 0 -15 -16 -15 -85z"/>
<path d="M4740 2835 c0 -69 3 -85 15 -85 12 0 15 16 15 85 0 69 -3 85 -15 85
-12 0 -15 -16 -15 -85z"/>
<path d="M4810 2835 c0 -69 3 -85 15 -85 12 0 15 16 15 85 0 69 -3 85 -15 85
-12 0 -15 -16 -15 -85z"/>
<path d="M4879 2878 c-7 -75 1 -128 17 -128 12 0 15 15 13 85 -1 61 -5 85 -14
85 -8 0 -14 -17 -16 -42z"/>
<path d="M4942 2838 c2 -66 6 -83 18 -83 19 0 24 41 15 112 -4 37 -11 53 -21
53 -12 0 -14 -15 -12 -82z"/>
<path d="M5010 2835 c0 -69 3 -85 15 -85 12 0 15 16 15 85 0 69 -3 85 -15 85
-12 0 -15 -16 -15 -85z"/>
<path d="M5080 2835 c0 -69 3 -85 15 -85 12 0 15 16 15 85 0 69 -3 85 -15 85
-12 0 -15 -16 -15 -85z"/>
<path d="M5150 2835 c0 -69 3 -85 15 -85 12 0 15 16 15 85 0 69 -3 85 -15 85
-12 0 -15 -16 -15 -85z"/>
<path d="M5220 2835 c0 -69 3 -85 15 -85 12 0 15 16 15 85 0 69 -3 85 -15 85
-12 0 -15 -16 -15 -85z"/>
<path d="M4670 2571 c0 -75 3 -91 15 -91 13 0 15 14 13 87 -2 58 -7 88 -15 91
-10 3 -13 -19 -13 -87z"/>
<path d="M4740 2570 c0 -73 3 -90 15 -90 12 0 15 17 15 90 0 73 -3 90 -15 90
-12 0 -15 -17 -15 -90z"/>
<path d="M4810 2571 c0 -75 3 -91 15 -91 13 0 15 14 13 87 -2 58 -7 88 -15 91
-10 3 -13 -19 -13 -87z"/>
<path d="M4880 2569 c0 -68 3 -90 13 -87 8 3 13 33 15 91 2 73 0 87 -13 87
-12 0 -15 -16 -15 -91z"/>
<path d="M4945 2648 c-2 -7 -3 -47 -2 -88 2 -59 5 -75 17 -75 8 0 15 6 14 13
-1 6 -2 46 -2 87 -1 44 -6 75 -12 75 -6 0 -13 -6 -15 -12z"/>
<path d="M5012 2573 c2 -58 7 -88 16 -91 9 -3 12 19 12 87 0 75 -3 91 -15 91
-13 0 -15 -14 -13 -87z"/>
<path d="M5080 2570 c0 -73 3 -90 15 -90 12 0 15 17 15 90 0 73 -3 90 -15 90
-12 0 -15 -17 -15 -90z"/>
<path d="M5150 2570 c0 -73 3 -90 15 -90 12 0 15 17 15 90 0 73 -3 90 -15 90
-12 0 -15 -17 -15 -90z"/>
<path d="M5220 2570 c0 -73 3 -90 15 -90 12 0 15 17 15 90 0 73 -3 90 -15 90
-12 0 -15 -17 -15 -90z"/>
<path d="M3170 2684 c0 -9 5 -14 12 -12 18 6 21 28 4 28 -9 0 -16 -7 -16 -16z"/>
<path d="M3240 2685 c0 -8 4 -15 9 -15 5 0 11 7 15 15 3 9 0 15 -9 15 -8 0
-15 -7 -15 -15z"/>
<path d="M4195 2633 c-27 -2 -109 -10 -182 -18 -73 -8 -136 -15 -141 -15 -5 0
-14 -11 -20 -24 -24 -52 -57 -62 -471 -132 -113 -18 -214 -34 -226 -34 -11 0
-29 9 -39 21 -12 14 -24 19 -39 15 -12 -3 -37 -6 -54 -6 -29 0 -33 -3 -33 -27
0 -30 32 -107 48 -117 5 -3 30 3 53 14 55 25 105 25 145 1 23 -14 43 -17 80
-14 42 4 62 0 118 -27 58 -28 74 -32 129 -28 51 3 74 11 131 46 83 50 124 59
191 43 27 -7 80 -12 117 -11 63 1 93 -7 170 -48 4 -2 3 11 -2 29 -18 63 8 126
104 247 36 46 66 86 66 88 0 4 -56 3 -145 -3z m-27 -120 c-3 -37 -4 -38 -45
-41 l-43 -3 0 40 0 41 46 0 45 0 -3 -37z"/>
<path d="M4110 2504 c0 -9 5 -14 12 -12 18 6 21 28 4 28 -9 0 -16 -7 -16 -16z"/>
<path d="M3170 2615 c0 -8 5 -15 10 -15 6 0 10 7 10 15 0 8 -4 15 -10 15 -5 0
-10 -7 -10 -15z"/>
<path d="M3176 2551 c-4 -5 -2 -12 3 -15 5 -4 12 -2 15 3 4 5 2 12 -3 15 -5 4
-12 2 -15 -3z"/>
<path d="M3176 2483 c-11 -11 -6 -23 9 -23 8 0 15 4 15 9 0 13 -16 22 -24 14z"/>
<path d="M7723 2370 c-19 -8 -21 -13 -12 -42 5 -18 9 -33 9 -34 0 -1 19 1 43
3 58 7 116 -11 174 -52 133 -97 202 -99 331 -12 l53 36 -29 15 c-27 14 -32 13
-78 -10 -42 -22 -59 -25 -117 -21 -54 3 -77 11 -115 35 -119 78 -135 86 -186
89 -28 1 -61 -1 -73 -7z"/>
<path d="M9005 2368 c-16 -6 -52 -26 -79 -46 -75 -52 -124 -72 -186 -72 -57 0
-125 24 -149 53 -12 16 -15 16 -42 0 -16 -10 -29 -20 -29 -23 0 -6 87 -65 135
-92 18 -10 52 -17 87 -18 51 0 63 4 125 46 79 55 111 69 174 78 48 7 58 20 59
69 0 20 -45 22 -95 5z"/>
<path d="M3793 2300 c-18 -4 -54 -21 -80 -37 -111 -69 -195 -76 -287 -25 -57
33 -111 41 -146 22 -14 -7 -23 -6 -34 6 -41 41 -118 37 -187 -10 -19 -13 -55
-29 -78 -36 -38 -10 -41 -13 -29 -28 128 -167 285 -275 466 -323 91 -25 258
-29 343 -9 43 10 132 47 212 88 4 2 7 -21 7 -52 l0 -56 205 0 205 0 0 199 0
199 -42 -15 c-62 -22 -133 -11 -219 31 -77 38 -107 43 -157 25 -24 -8 -36 -7
-54 4 -30 19 -85 27 -125 17z m204 -92 c74 -39 129 -50 182 -37 7 2 15 -1 18
-8 6 -16 -71 -36 -110 -28 -18 4 -60 22 -94 41 -80 45 -131 45 -214 4 -48 -25
-71 -30 -111 -28 -71 4 -78 28 -8 28 39 0 69 9 123 35 39 19 85 35 103 35 19
0 65 -17 111 -42z m-689 -9 c68 -36 82 -40 120 -34 59 9 53 -16 -7 -29 -39 -8
-49 -6 -122 32 -43 23 -88 42 -100 42 -11 0 -54 -16 -95 -36 -68 -34 -77 -36
-102 -24 l-27 13 44 8 c24 5 55 16 70 26 85 56 117 56 219 2z"/>
<path d="M6038 2288 l-48 -20 18 -30 c12 -21 22 -28 37 -24 87 24 143 15 219
-36 119 -80 116 -79 187 -76 60 3 73 8 127 46 81 56 121 72 184 72 59 0 125
-28 196 -82 35 -26 54 -33 106 -36 69 -4 101 7 168 60 54 42 100 58 171 58 59
0 64 2 80 30 17 28 17 29 -5 42 -13 6 -48 12 -78 12 -59 0 -99 -16 -163 -67
-102 -80 -226 -75 -337 13 -36 29 -42 30 -140 30 -97 0 -104 -1 -139 -29 -55
-43 -98 -62 -156 -68 -65 -7 -108 7 -187 61 -105 71 -158 81 -240 44z"/>
<path d="M7750 2208 c0 -25 69 -131 118 -181 140 -143 348 -216 577 -204 203
11 364 75 480 192 64 64 145 188 131 202 -12 12 -78 -10 -123 -42 -96 -68
-124 -79 -193 -79 -71 0 -113 17 -184 73 -80 64 -170 65 -258 2 -88 -63 -117
-75 -188 -75 -73 0 -105 13 -188 77 -46 35 -63 41 -113 45 -46 3 -59 1 -59
-10z"/>
<path d="M6093 2151 c-22 -6 -21 -8 17 -53 89 -103 268 -208 425 -249 95 -24
275 -29 375 -10 157 30 322 120 440 240 63 64 64 66 39 69 -36 4 -87 -18 -151
-66 -29 -22 -71 -45 -92 -52 -59 -19 -140 -7 -195 29 -126 82 -134 86 -192 86
-46 0 -65 -6 -105 -32 -112 -73 -134 -84 -180 -89 -64 -8 -121 8 -181 51 -92
66 -150 88 -200 76z"/>
</g>
</svg>
